<svg xmlns="http://www.w3.org/2000/svg" width="400" height="96" viewBox="0 0 400 96" role="img" aria-label="ReadMe Buddy">
<svg x="8" y="12" width="72" height="72" viewBox="0 0 64 64"><defs><linearGradient id="mkG" x1="0" y1="0" x2=".85" y2="1"><stop offset="0" stop-color="#6d70f5"/><stop offset="1" stop-color="#4740d8"/></linearGradient></defs><rect width="64" height="64" rx="14" fill="url(#mkG)"/><path d="M19 8h21l13 13v27a8 8 0 0 1-8 8H19a8 8 0 0 1-8-8V16a8 8 0 0 1 8-8z" fill="#fff"/><path d="M40 8v13h13z" fill="#c7d2fe"/><circle cx="24" cy="32.5" r="4" fill="#3f37c9"/><circle cx="40" cy="32.5" r="4" fill="#3f37c9"/><path d="M21 41c3.4 5.2 17.6 5.2 22 0" fill="none" stroke="#3f37c9" stroke-width="4.6" stroke-linecap="round"/></svg>
<text x="100" y="61" font-family="Inter" font-size="42" font-weight="700" letter-spacing="-1.6" fill="#fafafa">ReadMe <tspan fill="#a5b4fc">Buddy</tspan></text>
</svg>